PathFileType  4	(X/Y/Z) C:\Users\antoi\Documents\MyRepositories\mobilecap\ResultsAnalysis
DataRate	CameraRate	NumFrames	NumMarkers	Units	OrigDataRate	OrigDataStartFrame	OrigNumFrames
100.0	100.0	4	51	mm	100.0	55	144
Frame#	Time	r_knee			r_shank_antsup			r_ankle			r_calc			r_5meta			r_toe			L_knee			L_shank_antsup			L_ankle			L_calc			L_5meta			L_toe			r_sh2			r_sh3			r_sh4			L_sh2			L_sh3			r_thigh1			r_thigh2			r_thigh3			r_thigh4			r_thigh5			L_thigh1			L_thigh2			L_thigh3			L_thigh4			r.ASIS			r.PSIS			L.ASIS			L.PSIS			C7			R_Shoulder			L_Shoulder			R_Sternum			L_Sternum			R_humerus			R_elbow_med			R_elbow_lat			R_forearm			R_wrist_radius			R_wrist_ulna			L_humerus			L_elbow_med			L_elbow_lat			L_forearm			L_wrist_radius			L_wrist_ulna			R_HJC			L_HJC			R_HJC_reg			L_HJC_reg			
		X1	Y1	Z1	X2	Y2	Z2	X3	Y3	Z3	X4	Y4	Z4	X5	Y5	Z5	X6	Y6	Z6	X7	Y7	Z7	X8	Y8	Z8	X9	Y9	Z9	X10	Y10	Z10	X11	Y11	Z11	X12	Y12	Z12	X13	Y13	Z13	X14	Y14	Z14	X15	Y15	Z15	X16	Y16	Z16	X17	Y17	Z17	X18	Y18	Z18	X19	Y19	Z19	X20	Y20	Z20	X21	Y21	Z21	X22	Y22	Z22	X23	Y23	Z23	X24	Y24	Z24	X25	Y25	Z25	X26	Y26	Z26	X27	Y27	Z27	X28	Y28	Z28	X29	Y29	Z29	X30	Y30	Z30	X31	Y31	Z31	X32	Y32	Z32	X33	Y33	Z33	X34	Y34	Z34	X35	Y35	Z35	X36	Y36	Z36	X37	Y37	Z37	X38	Y38	Z38	X39	Y39	Z39	X40	Y40	Z40	X41	Y41	Z41	X42	Y42	Z42	X43	Y43	Z43	X44	Y44	Z44	X45	Y45	Z45	X46	Y46	Z46	X47	Y47	Z47	X48	Y48	Z48	X49	Y49	Z49	X50	Y50	Z50	X51	Y51	Z51	

55	0.54000000	374.59523	528.07067	-49.82730	382.19429	423.81058	-70.66838	206.53010	135.61860	-137.61587	115.46293	97.37273	-187.92765	304.76528	46.05271	-96.93141	368.16879	67.85831	-161.36939	652.12209	537.60044	-366.56453	682.03643	457.00825	-393.56599	808.34881	141.30761	-355.02579	775.64070	60.50841	-290.99302	941.20673	117.70735	-409.59937	988.58890	175.47898	-359.68323	329.89124	323.70040	-61.63480	326.03274	455.15375	-30.88905	257.71349	361.12086	-38.33092	602.88477	424.22426	-366.89981	662.38810	317.23305	-369.47248	507.17216	836.47366	0.36278	491.76789	728.24100	-11.16924	429.47196	710.65329	5.91870	393.28972	847.52969	8.31167	380.46782	736.19242	-11.28051	606.56823	837.83936	-352.17077	667.58789	710.83270	-348.95817	511.04578	788.49572	-375.72783	568.01887	664.90731	-378.93765	538.46586	1064.22708	-43.89471	362.85242	1057.60362	-126.15771	559.83918	1034.53835	-299.23644	368.26318	1042.71831	-235.78669	470.19364	1555.72226	-382.34875	588.78282	1550.10840	-230.75532	450.94289	1407.72325	-507.38230	580.07663	1455.20254	-346.75140	557.28012	1429.70290	-390.76193	626.76042	1441.50641	-106.73909	555.92962	1262.78420	4.92570	603.93355	1322.64893	49.30628	735.70635	1206.28605	68.12377	807.14702	1142.68650	51.23442	784.53569	1141.11467	92.62428	377.74979	1275.82940	-514.38466	296.44980	1116.28822	-344.66864	271.20000	1100.38604	-420.93048	271.44536	1024.94806	-430.69669	248.84956	852.73483	-380.48721	208.86546	866.20657	-375.52448	470.34109	940.95756	-57.23285	479.12987	922.47360	-263.18134	488.49396	975.33052	-71.12005	496.79830	952.44975	-239.60745	
56	0.55000000	384.11692	527.01826	-49.11879	390.53278	422.41628	-69.82811	208.65730	138.14534	-136.74974	116.92926	101.30474	-187.21742	305.21262	46.03313	-96.65198	368.86353	67.17904	-160.98829	666.95381	536.77061	-366.35048	695.72270	455.45227	-393.27013	815.67455	138.15101	-354.64180	781.28082	59.94147	-290.54081	947.47606	111.15844	-409.94928	996.77281	167.55915	-360.28260	336.45886	323.41964	-60.88947	335.24266	454.84925	-29.78500	264.97870	362.14873	-37.18703	615.95496	424.21811	-366.73014	673.30662	316.29585	-369.04838	519.15647	834.93028	0.89939	503.00867	726.89696	-10.30009	440.69162	709.64219	6.64898	405.31209	846.73889	8.63398	391.79392	735.35349	-10.63380	621.00177	837.25961	-351.90629	682.66067	710.54231	-348.56636	525.73006	787.41690	-375.65243	583.31764	664.10404	-378.68288	552.07430	1062.51550	-43.95341	376.49750	1056.48888	-126.06020	573.56390	1032.13594	-299.51851	381.66432	1041.27906	-235.50940	484.04404	1551.22660	-388.19803	603.09596	1547.09309	-236.78942	463.71362	1401.64328	-511.09910	594.10820	1450.67080	-351.63853	570.80712	1424.59272	-395.35658	640.41519	1440.03364	-111.06595	568.67096	1263.39342	3.20986	616.85531	1323.83830	46.73355	748.75283	1207.75143	66.17287	820.11089	1144.04620	49.55696	797.75342	1142.91722	91.15039	389.51478	1270.43525	-516.16389	307.34994	1113.54530	-344.50309	281.18085	1097.26855	-420.38837	280.43211	1021.86440	-429.58436	256.50291	850.19413	-377.85655	216.86561	864.04976	-372.45409	483.55909	939.51367	-56.98009	492.12925	920.51391	-262.89141	501.91158	973.78554	-70.87030	509.85996	950.34824	-239.50741	
57	0.56000000	394.02356	525.98915	-48.57859	399.11299	421.02280	-69.15472	211.05613	140.91657	-135.83941	118.65256	105.68105	-186.45761	305.78535	46.11502	-96.37735	369.59027	66.48334	-160.59241	681.32085	535.93488	-366.18512	709.02272	453.92948	-392.89101	822.22090	134.96584	-354.29390	785.59945	60.20806	-290.36791	952.88134	103.95248	-409.95362	1004.20857	158.66448	-360.34899	343.33895	323.25296	-60.19879	344.88578	454.61662	-28.79960	272.59698	363.34158	-36.09978	628.49194	424.36131	-366.85929	683.49939	315.37974	-368.86222	531.53905	833.41890	1.13852	514.68035	725.57317	-9.72253	452.37243	708.66037	7.19518	417.74809	845.95478	8.86988	403.57720	734.50773	-10.09346	635.37765	836.75079	-351.97850	697.64073	710.33442	-348.46169	540.32677	786.41430	-375.76153	598.41261	663.34608	-378.31078	566.00446	1060.84846	-44.27733	390.41190	1055.53422	-126.07970	587.45947	1029.98885	-299.92878	395.22068	1040.15388	-235.35325	497.97687	1546.88824	-394.03395	617.56327	1544.17961	-242.75790	476.73971	1395.67335	-514.77812	608.32207	1446.28293	-356.51962	584.47184	1419.63832	-399.93975	654.04316	1438.54537	-115.34992	580.99177	1264.04146	1.29917	629.38685	1324.95164	44.06260	761.16337	1208.88772	64.31028	832.36635	1144.99698	48.07975	810.16641	1144.27782	89.79986	401.68309	1265.07648	-518.05062	318.73689	1110.71578	-344.55085	291.70648	1094.14042	-420.08902	289.96842	1018.78530	-428.78261	264.92154	847.58499	-375.71161	225.60617	861.80750	-369.86650	497.01918	938.15498	-56.98810	505.25783	918.81860	-262.88218	515.67219	972.29892	-70.92179	523.08621	948.55232	-239.63485	
58	0.57000000	404.50816	525.05603	-48.15204	407.95085	419.64304	-68.68267	213.80316	143.99274	-134.94528	120.70869	110.56684	-185.70974	306.50775	46.33600	-96.12782	370.39858	65.79910	-160.19546	695.10738	535.08575	-366.11774	721.86431	452.46047	-392.50498	828.38090	131.91674	-354.01259	789.19280	61.26240	-290.40279	957.79508	96.48047	-409.64673	1011.14344	149.31888	-359.95768	350.51796	323.22348	-59.62638	355.00512	454.48439	-27.98273	280.58839	364.74625	-35.15509	640.51402	424.54955	-367.23758	693.17934	314.49003	-368.90330	544.37130	831.95837	1.04753	526.84066	724.27800	-9.46118	464.59793	707.72289	7.51976	430.65523	845.16779	9.01160	415.88686	733.68920	-9.69760	649.58373	836.22348	-352.41210	712.31490	710.06743	-348.73275	554.65958	785.48916	-375.98196	613.03857	662.59096	-377.87158	580.26016	1059.25571	-44.83643	404.59252	1054.75002	-126.24962	601.50244	1028.10915	-300.44378	409.00039	1039.35515	-235.38494	511.99969	1542.74488	-399.82460	632.16355	1541.41698	-248.64199	490.01315	1389.87663	-518.39957	622.66471	1442.09949	-361.37435	598.26687	1414.90632	-404.48959	667.64360	1437.08686	-119.57422	592.91708	1264.73928	-0.81544	641.55858	1325.99559	41.28876	772.95839	1209.69222	62.54209	843.92114	1145.52232	46.80757	821.79034	1145.18773	88.57831	414.27589	1259.78429	-520.03084	330.60180	1107.80430	-344.81495	302.81717	1091.00358	-420.04060	300.12635	1015.69164	-428.29789	274.14601	844.90413	-374.07147	235.10762	859.47074	-367.78901	510.71104	936.90469	-57.25849	518.54841	917.40005	-263.15318	529.72786	970.87329	-71.28388	536.53548	947.07559	-239.99930	
